
<svg xmlns="http://www.w3.org/2000/svg" xmlns:xlink="http://www.w3.org/1999/xlink" contentStyleType="text/css" data-diagram-type="DESCRIPTION" height="1175px" preserveAspectRatio="none" style="width:1487px;height:1175px;background:#FFFFFF;" version="1.1" viewBox="0 0 1487 1175" width="1487px" zoomAndPan="magnify"><title>[&#26053;&#12377;&#12427;&#12487;&#12472;&#12479;&#12523;&#12506;&#12483;&#12488; - &#12383;&#12403;&#12410;&#12387;&#12385;] &#12471;&#12473;&#12486;&#12512;&#27083;&#25104;&#22259;</title><defs/><g><g class="title" data-source-line="2"><text fill="#000000" font-family="Yu Gothic UI" font-size="14" font-weight="bold" lengthAdjust="spacing" textLength="347.1357" x="563.2368" y="27.9951">[&#26053;&#12377;&#12427;&#12487;&#12472;&#12479;&#12523;&#12506;&#12483;&#12488; - &#12383;&#12403;&#12410;&#12387;&#12385;] &#12471;&#12473;&#12486;&#12512;&#27083;&#25104;&#22259;</text></g><!--cluster Google Cloud (Firebase)--><g class="cluster" data-entity="Google Cloud (Firebase)" data-source-line="32" data-uid="ent0004" id="cluster_Google Cloud (Firebase)"><path d="M8.5,53.2969 L196.2314,53.2969 A3.75,3.75 0 0 1 198.7314,55.7969 L205.7314,84.4297 L1091.5,84.4297 A2.5,2.5 0 0 1 1094,86.9297 L1094,1049.7969 A2.5,2.5 0 0 1 1091.5,1052.2969 L8.5,1052.2969 A2.5,2.5 0 0 1 6,1049.7969 L6,55.7969 A2.5,2.5 0 0 1 8.5,53.2969" fill="#EDF2FF" style="stroke:#696969;stroke-width:1;"/><line style="stroke:#696969;stroke-width:1;" x1="6" x2="205.7314" y1="84.4297" y2="84.4297"/><text fill="#000000" font-family="Yu Gothic UI" font-size="13" font-weight="bold" lengthAdjust="spacing" textLength="176.7314" x="15" y="72.3638">Google Cloud (Firebase)</text></g><!--cluster Cloud Functions--><g class="cluster" data-entity="Cloud Functions" data-source-line="39" data-uid="ent0010" id="cluster_Cloud Functions"><rect fill="#F7F9FC" height="660" rx="2.5" ry="2.5" style="stroke:#495057;stroke-width:1;" width="944" x="126" y="223.2969"/><path d="M263.7046,223.2969 L263.7046,241.4297 L253.7046,251.4297 L126,251.4297" fill="none" style="stroke:#495057;stroke-width:1;"/><text fill="#000000" font-family="Yu Gothic UI" font-size="13" font-weight="bold" lengthAdjust="spacing" textLength="117.7046" x="134" y="241.3638">Cloud Functions</text></g><!--cluster Generate Diaries--><g class="cluster" data-entity="Generate Diaries" data-source-line="44" data-uid="ent0014" id="cluster_Generate Diaries"><rect fill="#E0EFFF" height="454" rx="2.5" ry="2.5" style="stroke:#696969;stroke-width:1;" width="260" x="717" y="405.2969"/><text fill="#000000" font-family="Yu Gothic UI" font-size="13" font-weight="bold" lengthAdjust="spacing" textLength="123.7412" x="785.1294" y="424.3638">Generate Diaries</text></g><!--entity SecretManager--><g class="entity" data-entity="SecretManager" data-source-line="33" data-uid="ent0005" id="entity_SecretManager"><path d="M835.5,107.2969 C835.5,97.2969 922.1333,97.2969 922.1333,97.2969 C922.1333,97.2969 1008.7666,97.2969 1008.7666,107.2969 L1008.7666,156.5625 C1008.7666,166.5625 922.1333,166.5625 922.1333,166.5625 C922.1333,166.5625 835.5,166.5625 835.5,156.5625 L835.5,107.2969" fill="#FFF3CD" style="stroke:#454645;stroke-width:0.5;"/><path d="M835.5,107.2969 C835.5,117.2969 922.1333,117.2969 922.1333,117.2969 C922.1333,117.2969 1008.7666,117.2969 1008.7666,107.2969" fill="none" style="stroke:#454645;stroke-width:0.5;"/><text fill="#454645" font-family="Yu Gothic UI" font-size="13" lengthAdjust="spacing" textLength="102.9526" x="850.5" y="138.3638">Secret Manager</text><text fill="#454645" font-family="Yu Gothic UI" font-size="13" lengthAdjust="spacing" textLength="143.2666" x="850.5" y="153.4966">(Gmail App Password)</text></g><!--entity CloudScheduler--><g class="entity" data-entity="CloudScheduler" data-source-line="34" data-uid="ent0006" id="entity_CloudScheduler"><path d="M512,114.2969 L638.3486,114.2969 C643.3486,114.2969 643.3486,131.8633 643.3486,131.8633 C643.3486,131.8633 643.3486,149.4297 638.3486,149.4297 L512,149.4297 C507,149.4297 507,131.8633 507,131.8633 C507,131.8633 507,114.2969 512,114.2969" fill="#E8F5E8" style="stroke:#454645;stroke-width:1.5;"/><path d="M638.3486,114.2969 C633.3486,114.2969 633.3486,131.8633 633.3486,131.8633 C633.3486,149.4297 638.3486,149.4297 638.3486,149.4297" fill="none" style="stroke:#454645;stroke-width:1.5;"/><text fill="#2C3E50" font-family="Yu Gothic UI" font-size="13" lengthAdjust="spacing" textLength="106.3486" x="517" y="136.3638">Cloud Scheduler</text></g><!--entity Firestore--><g class="entity" data-entity="Firestore" data-source-line="35" data-uid="ent0007" id="entity_Firestore"><path d="M22,621.7969 C22,611.7969 65.7993,611.7969 65.7993,611.7969 C65.7993,611.7969 109.5986,611.7969 109.5986,621.7969 L109.5986,655.9297 C109.5986,665.9297 65.7993,665.9297 65.7993,665.9297 C65.7993,665.9297 22,665.9297 22,655.9297 L22,621.7969" fill="#FFF3CD" style="stroke:#454645;stroke-width:0.5;"/><path d="M22,621.7969 C22,631.7969 65.7993,631.7969 65.7993,631.7969 C65.7993,631.7969 109.5986,631.7969 109.5986,621.7969" fill="none" style="stroke:#454645;stroke-width:0.5;"/><text fill="#454645" font-family="Yu Gothic UI" font-size="13" lengthAdjust="spacing" textLength="57.5986" x="37" y="652.8638">Firestore</text></g><!--entity CloudStorage--><g class="entity" data-entity="CloudStorage" data-source-line="36" data-uid="ent0008" id="entity_CloudStorage"><path d="M783.8891,975.5813 C786.7712,969.2852 790.7444,967.6021 796.0954,973.0054 C800.0626,967.0963 804.3594,965.928 809.3699,971.8332 C811.5998,966.2303 817.4711,964.4242 821.507,969.8448 C826.0254,962.5681 830.5228,961.8028 835.9175,968.9706 C837.9686,962.6947 842.8933,962.1579 847.0234,966.8691 C851.5726,960.7246 858.0316,961.9436 860.3988,969.0685 C865.61,962.0741 870.1441,963.5681 874.2935,970.1548 C879.2463,965.8246 883.3431,966.0976 885.4467,972.9871 C890.629,967.4413 895.8153,966.4803 899.5258,974.5131 C903.6627,967.6159 909.4956,968.8723 912.9448,975.2103 C919.9689,978.0263 920.9203,983.9401 915.6103,989.1196 C924.8111,991.1156 925.0182,996.1767 920.6857,1003.0894 C924.5051,1007.9994 922.9382,1013.5772 916.7385,1015.2295 C922.1474,1021.985 919.9295,1027.9756 911.5761,1029.8826 C907.7816,1035.7831 902.7451,1034.523 899.8087,1028.9988 C895.1953,1035.3671 890.7947,1035.2446 885.5566,1029.7491 C882.0931,1035.0223 876.9752,1036.648 873.2076,1030.0659 C869.2679,1036.1025 865.499,1037.3201 860.6868,1030.9462 C857.304,1037.6568 852.5633,1037.6758 848.4199,1031.6804 C843.0182,1038.0548 838.6881,1037.2292 834.5145,1030.3881 C831.0688,1035.9905 825.679,1036.5513 822.0946,1030.5364 C818.4777,1036.2284 813.7051,1036.6971 809.6998,1030.9576 C804.9403,1035.8289 801.3509,1035.1506 797.9438,1029.4532 C794.7272,1036.5628 789.106,1036.9154 785.0306,1030.2586 C777.4341,1028.2638 773.5194,1023.4415 779.2607,1016.0357 C771.3259,1013.047 771.1429,1008.2067 775.7672,1002.0752 C771.1263,997.2873 772.8054,992.2511 778.7049,990.0349 C772.2995,983.4453 776.5913,977.2558 783.8891,975.5813" fill="#E8F5E8" style="stroke:#181818;stroke-width:0.5;"/><text fill="#000000" font-family="Yu Gothic UI" font-size="13" lengthAdjust="spacing" textLength="92.1299" x="795" y="998.3638">Cloud Storage</text><text fill="#000000" font-family="Yu Gothic UI" font-size="13" lengthAdjust="spacing" textLength="104" x="795" y="1013.4966">(Resize Images)</text></g><!--entity VertexAI--><g class="entity" data-entity="VertexAI" data-source-line="37" data-uid="ent0009" id="entity_VertexAI"><path d="M369.5541,975.2545 C371.9047,970.232 375.9482,968.927 380.24,972.965 C383.7726,967.2382 388.5975,966.445 392.8509,972.1714 C395.6491,967.1991 400.7645,965.8162 404.231,971.4547 C407.0978,966.0608 410.3089,964.3441 415.2299,969.2641 C417.68,963.9158 421.0367,963.9944 424.926,967.7274 C428.0099,961.6622 433.6059,961.5414 437.3519,967.0142 C440.7072,962.2501 445.9294,962.7891 448.737,967.6612 C453.1966,962.5681 457.8854,964.3255 459.6108,970.3383 C463.505,965.9249 466.8102,965.0997 470.1799,970.882 C473.4943,966.3674 479.011,966.2181 481.4824,971.8235 C486.3655,968.0299 489.6112,969.0683 492.3385,974.3907 C496.5445,969.4519 500.7528,970.8984 502.9106,976.454 C509.5844,978.6279 511.6824,984.8669 505.292,989.4371 C512.4499,993.3354 511.0713,998.9617 505.1217,1002.6916 C511.4136,1007.2423 509.7873,1013.4695 503.7287,1016.8008 C509.944,1021.2098 510.7848,1025.1937 504.3264,1030.1693 C500.774,1034.7925 497.2444,1036.4124 493.2099,1030.6872 C490.235,1036.3278 485.2922,1037.9381 480.8232,1032.3328 C477.4757,1037.3188 473.1088,1037.092 470.3176,1031.7661 C467.8623,1037.931 462.7781,1038.4075 459.0838,1032.9653 C457.2806,1039.6616 452.3178,1039.9062 447.6791,1036.0216 C444.3351,1040.8347 440.5224,1041.8208 436.4992,1036.7932 C431.607,1040.3705 428.252,1039.5245 425.6762,1034.0297 C423.0881,1038.9806 417.5142,1039.7464 414.3122,1034.7296 C411.2886,1038.7788 406.7159,1038.3792 404.4336,1033.8737 C399.3478,1039.3388 394.013,1038.0623 391.7159,1031.0348 C388.2033,1035.282 384.7828,1035.6914 382.0623,1030.2461 C377.5092,1036.5491 372.6443,1035.7667 369.2995,1029.0607 C362.785,1025.4326 361.9735,1021.3522 367.9789,1016.4164 C359.1459,1013.0739 357.9424,1008.1836 364.8587,1001.5382 C359.2918,996.6147 360.0555,991.5729 367.0052,988.7504 C362.1939,982.9517 361.5192,978.627 369.5541,975.2545" fill="#F3E8FF" style="stroke:#181818;stroke-width:0.5;"/><text fill="#000000" font-family="Yu Gothic UI" font-size="13" lengthAdjust="spacing" textLength="59.8838" x="381" y="998.3638">Vertex AI</text><text fill="#000000" font-family="Yu Gothic UI" font-size="13" lengthAdjust="spacing" textLength="109.6748" x="381" y="1013.4966">(Gemini/Imagen)</text></g><!--entity EmailCheck--><g class="entity" data-entity="EmailCheck" data-source-line="40" data-uid="ent0011" id="entity_EmailCheck"><rect fill="#FFF0F0" height="55.1328" rx="2.5" ry="2.5" style="stroke:#181818;stroke-width:0.5;" width="181.0664" x="414.5" y="267.2969"/><rect fill="#FFF0F0" height="10" style="stroke:#181818;stroke-width:0.5;" width="15" x="575.5664" y="272.2969"/><rect fill="#FFF0F0" height="2" style="stroke:#181818;stroke-width:0.5;" width="4" x="573.5664" y="274.2969"/><rect fill="#FFF0F0" height="2" style="stroke:#181818;stroke-width:0.5;" width="4" x="573.5664" y="278.2969"/><text fill="#000000" font-family="Yu Gothic UI" font-size="13" lengthAdjust="spacing" textLength="131.0664" x="434.5" y="304.3638">Email Check Trigger</text></g><!--entity CreatePet--><g class="entity" data-entity="CreatePet" data-source-line="41" data-uid="ent0012" id="entity_CreatePet"><rect fill="#FFF0F0" height="55.1328" rx="2.5" ry="2.5" style="stroke:#181818;stroke-width:0.5;" width="152.356" x="495" y="449.2969"/><rect fill="#FFF0F0" height="10" style="stroke:#181818;stroke-width:0.5;" width="15" x="627.356" y="454.2969"/><rect fill="#FFF0F0" height="2" style="stroke:#181818;stroke-width:0.5;" width="4" x="625.356" y="456.2969"/><rect fill="#FFF0F0" height="2" style="stroke:#181818;stroke-width:0.5;" width="4" x="625.356" y="460.2969"/><text fill="#000000" font-family="Yu Gothic UI" font-size="13" lengthAdjust="spacing" textLength="102.356" x="515" y="486.3638">Create Pet Flow</text></g><!--entity DiaryTrigger--><g class="entity" data-entity="DiaryTrigger" data-source-line="42" data-uid="ent0013" id="entity_DiaryTrigger"><rect fill="#EDF5FF" height="55.1328" rx="2.5" ry="2.5" style="stroke:#181818;stroke-width:0.5;" width="172.5288" x="655.5" y="267.2969"/><rect fill="#EDF5FF" height="10" style="stroke:#181818;stroke-width:0.5;" width="15" x="808.0288" y="272.2969"/><rect fill="#EDF5FF" height="2" style="stroke:#181818;stroke-width:0.5;" width="4" x="806.0288" y="274.2969"/><rect fill="#EDF5FF" height="2" style="stroke:#181818;stroke-width:0.5;" width="4" x="806.0288" y="278.2969"/><text fill="#000000" font-family="Yu Gothic UI" font-size="13" lengthAdjust="spacing" textLength="122.5288" x="675.5" y="304.3638">Daily Diary Trigger</text></g><!--entity DiaryEmail--><g class="entity" data-entity="DiaryEmail" data-source-line="50" data-uid="ent0018" id="entity_DiaryEmail"><rect fill="#EFFFEF" height="55.1328" rx="2.5" ry="2.5" style="stroke:#181818;stroke-width:0.5;" width="212.7285" x="141.5" y="267.2969"/><rect fill="#EFFFEF" height="10" style="stroke:#181818;stroke-width:0.5;" width="15" x="334.2285" y="272.2969"/><rect fill="#EFFFEF" height="2" style="stroke:#181818;stroke-width:0.5;" width="4" x="332.2285" y="274.2969"/><rect fill="#EFFFEF" height="2" style="stroke:#181818;stroke-width:0.5;" width="4" x="332.2285" y="278.2969"/><text fill="#000000" font-family="Yu Gothic UI" font-size="13" lengthAdjust="spacing" textLength="162.7285" x="161.5" y="304.3638">Daily Diary Email Trigger</text></g><!--entity Cleanup--><g class="entity" data-entity="Cleanup" data-source-line="51" data-uid="ent0019" id="entity_Cleanup"><rect fill="#FFF9E6" height="55.1328" rx="2.5" ry="2.5" style="stroke:#181818;stroke-width:0.5;" width="165.4766" x="888.5" y="267.2969"/><rect fill="#FFF9E6" height="10" style="stroke:#181818;stroke-width:0.5;" width="15" x="1033.9766" y="272.2969"/><rect fill="#FFF9E6" height="2" style="stroke:#181818;stroke-width:0.5;" width="4" x="1031.9766" y="274.2969"/><rect fill="#FFF9E6" height="2" style="stroke:#181818;stroke-width:0.5;" width="4" x="1031.9766" y="278.2969"/><text fill="#000000" font-family="Yu Gothic UI" font-size="13" lengthAdjust="spacing" textLength="115.4766" x="908.5" y="304.3638">Daily Pet Cleanup</text></g><!--entity GenerateDestination--><g class="entity" data-entity="GenerateDestination" data-source-line="45" data-uid="ent0015" id="entity_GenerateDestination"><rect fill="#EDF5FF" height="55.1328" rx="2.5" ry="2.5" style="stroke:#181818;stroke-width:0.5;" width="223.2529" x="732.5" y="449.2969"/><rect fill="#EDF5FF" height="10" style="stroke:#181818;stroke-width:0.5;" width="15" x="935.7529" y="454.2969"/><rect fill="#EDF5FF" height="2" style="stroke:#181818;stroke-width:0.5;" width="4" x="933.7529" y="456.2969"/><rect fill="#EDF5FF" height="2" style="stroke:#181818;stroke-width:0.5;" width="4" x="933.7529" y="460.2969"/><text fill="#000000" font-family="Yu Gothic UI" font-size="13" lengthAdjust="spacing" textLength="173.2529" x="752.5" y="486.3638">Generate Destination Flow</text></g><!--entity GenerateDiary--><g class="entity" data-entity="GenerateDiary" data-source-line="46" data-uid="ent0016" id="entity_GenerateDiary"><rect fill="#EDF5FF" height="55.1328" rx="2.5" ry="2.5" style="stroke:#181818;stroke-width:0.5;" width="183.2817" x="739.5" y="611.2969"/><rect fill="#EDF5FF" height="10" style="stroke:#181818;stroke-width:0.5;" width="15" x="902.7817" y="616.2969"/><rect fill="#EDF5FF" height="2" style="stroke:#181818;stroke-width:0.5;" width="4" x="900.7817" y="618.2969"/><rect fill="#EDF5FF" height="2" style="stroke:#181818;stroke-width:0.5;" width="4" x="900.7817" y="622.2969"/><text fill="#000000" font-family="Yu Gothic UI" font-size="13" lengthAdjust="spacing" textLength="133.2817" x="759.5" y="648.3638">Generate Diary Flow</text></g><!--entity GenerateDiaryImage--><g class="entity" data-entity="GenerateDiaryImage" data-source-line="47" data-uid="ent0017" id="entity_GenerateDiaryImage"><rect fill="#EDF5FF" height="55.1328" rx="2.5" ry="2.5" style="stroke:#181818;stroke-width:0.5;" width="228.1279" x="733" y="788.2969"/><rect fill="#EDF5FF" height="10" style="stroke:#181818;stroke-width:0.5;" width="15" x="941.1279" y="793.2969"/><rect fill="#EDF5FF" height="2" style="stroke:#181818;stroke-width:0.5;" width="4" x="939.1279" y="795.2969"/><rect fill="#EDF5FF" height="2" style="stroke:#181818;stroke-width:0.5;" width="4" x="939.1279" y="799.2969"/><text fill="#000000" font-family="Yu Gothic UI" font-size="13" lengthAdjust="spacing" textLength="178.1279" x="753" y="825.3638">Generate Diary Image Flow</text></g><!--entity User--><g class="entity" data-entity="User" data-source-line="29" data-uid="ent0002" id="entity_User"><ellipse cx="1264.8047" cy="781.7969" fill="#F8F9FA" rx="8" ry="8" style="stroke:#2C3E50;stroke-width:0.5;"/><path d="M1264.8047,789.7969 L1264.8047,816.7969 M1251.8047,797.7969 L1277.8047,797.7969 M1264.8047,816.7969 L1251.8047,831.7969 M1264.8047,816.7969 L1277.8047,831.7969" fill="none" style="stroke:#2C3E50;stroke-width:0.5;"/><text fill="#454645" font-family="Yu Gothic UI" font-size="13" lengthAdjust="spacing" textLength="52.6094" x="1238.5" y="850.3638">&#12518;&#12540;&#12470;&#12540;</text></g><!--entity Gmail--><g class="entity" data-entity="Gmail" data-source-line="30" data-uid="ent0003" id="entity_Gmail"><path d="M1188.2651,620.2294 C1191.6487,612.7856 1196.91,610.939 1202.4967,618.0796 C1207.0033,608.5498 1214.7122,609.6182 1220.1437,617.1214 C1223.9151,611.3791 1230.9748,610.1387 1234.1823,617.7158 C1240.434,609.9473 1245.7401,612.8331 1249.9505,619.8872 C1261.1419,623.3161 1262.8312,632.645 1253.5603,639.7859 C1263.1615,646.9226 1259.3009,655.6091 1249.9567,659.2356 C1246.5762,666.744 1239.6459,669.4493 1233.937,661.6767 C1232.4961,670.1836 1225.4595,671.1704 1219.8131,666.0286 C1212.1575,673.4469 1206.333,670.784 1202.7467,661.7957 C1198.0246,667.877 1190.6665,666.4431 1187.6407,659.7844 C1176.9303,656.1605 1174.4985,647.5333 1182.7563,639.3709 C1175.3055,631.7931 1177.2478,622.4923 1188.2651,620.2294" fill="#FFEBEE" style="stroke:#181818;stroke-width:0.5;"/><text fill="#000000" font-family="Yu Gothic UI" font-size="13" lengthAdjust="spacing" textLength="37.9272" x="1199" y="643.3638">Gmail</text></g><!--link User to Gmail--><g class="link" data-entity-1="User" data-entity-2="Gmail" data-source-line="56" data-uid="lnk20" id="link_User_Gmail"><path d="M1275.28,773.2869 C1278.52,752.6069 1279.54,727.5569 1272,706.2969 C1266.78,691.5769 1260.7481,682.2207 1250.7481,671.0307" fill="none" id="User-to-Gmail" style="stroke:#DC3545;stroke-width:2;"/><polygon fill="#DC3545" points="1246.75,666.5569,1249.7646,675.933,1250.0817,670.2851,1255.7297,670.6023,1246.75,666.5569" style="stroke:#DC3545;stroke-width:2;"/><text fill="#DC3545" font-family="Yu Gothic UI" font-size="13" lengthAdjust="spacing" textLength="155.6636" x="1283" y="724.3638">travel-pet&#23451;&#12395;&#12513;&#12540;&#12523;&#36865;&#20449;</text></g><!--link Gmail to User--><g class="link" data-entity-1="Gmail" data-entity-2="User" data-source-line="82" data-uid="lnk42" id="link_Gmail_User"><path d="M1197.45,666.6269 C1185.66,685.4469 1174.85,711.0969 1184,733.2969 C1194.04,757.6369 1210.5723,774.8018 1228.7723,789.3418" fill="none" id="Gmail-to-User" style="stroke:#495057;stroke-width:1;"/><polygon fill="#495057" points="1233.46,793.0869,1228.9251,784.3442,1229.5536,789.966,1223.9317,790.5945,1233.46,793.0869" style="stroke:#495057;stroke-width:1;"/><text fill="#000000" font-family="Yu Gothic UI" font-size="13" lengthAdjust="spacing" textLength="65.6094" x="1190" y="724.3638">&#12513;&#12540;&#12523;&#21463;&#20449;</text></g><!--link CloudScheduler to EmailCheck--><g class="link" data-entity-1="CloudScheduler" data-entity-2="EmailCheck" data-source-line="57" data-uid="lnk21" id="link_CloudScheduler_EmailCheck"><path d="M567.77,149.4169 C555.65,177.2969 533.5227,228.2046 518.9727,261.6646" fill="none" id="CloudScheduler-to-EmailCheck" style="stroke:#DC3545;stroke-width:2;"/><polygon fill="#DC3545" points="516.58,267.1669,523.8372,260.5085,518.5739,262.5816,516.5008,257.3183,516.58,267.1669" style="stroke:#DC3545;stroke-width:2;"/></g><!--link EmailCheck to CreatePet--><g class="link" data-entity-1="EmailCheck" data-entity-2="CreatePet" data-source-line="58" data-uid="lnk22" id="link_EmailCheck_CreatePet"><path d="M514.74,322.3569 C527.22,356.3869 546.6539,409.4138 559.1539,443.4938" fill="none" id="EmailCheck-to-CreatePet" style="stroke:#DC3545;stroke-width:2;"/><polygon fill="#DC3545" points="561.22,449.1269,561.8762,439.2999,559.4982,444.4327,554.3655,442.0547,561.22,449.1269" style="stroke:#DC3545;stroke-width:2;"/><text fill="#DC3545" font-family="Yu Gothic UI" font-size="13" lengthAdjust="spacing" textLength="78" x="544" y="380.3638">&#30331;&#37682;&#20966;&#29702;&#38283;&#22987;</text></g><!--link CreatePet to VertexAI--><g class="link" data-entity-1="CreatePet" data-entity-2="VertexAI" data-source-line="59" data-uid="lnk23" id="link_CreatePet_VertexAI"><path d="M494.85,503.2969 C493.56,503.6369 492.28,503.9769 491,504.2969 C393.84,529.0069 345.86,479.9269 269,544.2969 C259.19,552.5169 265.37,560.1969 259,571.2969 C220.31,638.6469 174.2,633.1769 148,706.2969 C104.98,826.3569 256.5468,919.3599 355.5468,966.2199" fill="none" id="CreatePet-to-VertexAI" style="stroke:#DC3545;stroke-width:2;"/><polygon fill="#DC3545" points="360.97,968.7869,354.5466,961.321,356.4507,966.6477,351.1239,968.5519,360.97,968.7869" style="stroke:#DC3545;stroke-width:2;"/><text fill="#DC3545" font-family="Yu Gothic UI" font-size="13" lengthAdjust="spacing" textLength="165.9976" x="154" y="724.3638">&#12503;&#12525;&#12501;&#12451;&#12540;&#12523;&#29983;&#25104; (Gemini)</text></g><!--link CreatePet to Firestore--><g class="link" data-entity-1="CreatePet" data-entity-2="Firestore" data-source-line="60" data-uid="lnk24" id="link_CreatePet_Firestore"><path d="M494.88,503.4069 C493.58,503.7169 492.29,504.0169 491,504.2969 C339.84,537.6969 281.43,471.1469 145,544.2969 C116.53,559.5569 97.1795,584.5561 83.5895,606.4961" fill="none" id="CreatePet-to-Firestore" style="stroke:#DC3545;stroke-width:2;"/><polygon fill="#DC3545" points="80.43,611.5969,88.5697,606.0521,83.0629,607.3463,81.7687,601.8394,80.43,611.5969" style="stroke:#DC3545;stroke-width:2;"/><text fill="#DC3545" font-family="Yu Gothic UI" font-size="13" lengthAdjust="spacing" textLength="91.9141" x="151" y="562.3638">&#12506;&#12483;&#12488;&#24773;&#22577;&#20445;&#23384;</text></g><!--link CreatePet to Gmail--><g class="link" data-entity-1="CreatePet" data-entity-2="Gmail" data-source-line="61" data-uid="lnk25" id="link_CreatePet_Gmail"><path d="M647,492.9069 C667.43,496.7969 689.53,500.8569 710,504.2969 C831.36,524.7169 865.97,509.4469 984,544.2969 C1011.66,552.4669 1016.4,560.1669 1043,571.2969 C1089.18,590.6069 1137.4817,608.7051 1173.1517,621.6851" fill="none" id="CreatePet-to-Gmail" style="stroke:#DC3545;stroke-width:2;"/><polygon fill="#DC3545" points="1178.79,623.7369,1171.7004,616.9004,1174.0914,622.0271,1168.9647,624.4181,1178.79,623.7369" style="stroke:#DC3545;stroke-width:2;"/><text fill="#DC3545" font-family="Yu Gothic UI" font-size="13" lengthAdjust="spacing" textLength="117.6094" x="1049" y="562.3638">&#30331;&#37682;&#23436;&#20102;&#12513;&#12540;&#12523;&#36865;&#20449;</text></g><!--link CloudScheduler to DiaryTrigger--><g class="link" data-entity-1="CloudScheduler" data-entity-2="DiaryTrigger" data-source-line="63" data-uid="lnk26" id="link_CloudScheduler_DiaryTrigger"><path d="M592.24,149.4169 C621.16,177.2969 675.3503,229.5427 710.0603,263.0027" fill="none" id="CloudScheduler-to-DiaryTrigger" style="stroke:#0D6EFD;stroke-width:2;"/><polygon fill="#0D6EFD" points="714.38,267.1669,710.6765,258.0409,710.7802,263.6968,705.1243,263.8005,714.38,267.1669" style="stroke:#0D6EFD;stroke-width:2;"/></g><!--link DiaryTrigger to GenerateDestination--><g class="link" data-entity-1="DiaryTrigger" data-entity-2="GenerateDestination" data-source-line="64" data-uid="lnk27" id="link_DiaryTrigger_GenerateDestination"><path d="M757.05,322.3569 C776.34,356.3869 806.611,409.8273 825.931,443.9073" fill="none" id="DiaryTrigger-to-GenerateDestination" style="stroke:#0D6EFD;stroke-width:2;"/><polygon fill="#0D6EFD" points="828.89,449.1269,827.9312,439.3248,826.4242,444.7772,820.9718,443.2701,828.89,449.1269" style="stroke:#0D6EFD;stroke-width:2;"/><text fill="#0D6EFD" font-family="Yu Gothic UI" font-size="13" lengthAdjust="spacing" textLength="144.2188" x="799" y="380.3638">&#20840;&#12506;&#12483;&#12488;&#12398;&#26085;&#35352;&#29983;&#25104;&#38283;&#22987;</text></g><!--link GenerateDestination to VertexAI--><g class="link" data-entity-1="GenerateDestination" data-entity-2="VertexAI" data-source-line="65" data-uid="lnk28" id="link_GenerateDestination_VertexAI"><path d="M749.73,504.3869 C656.6,536.0569 518.59,598.6969 451,706.2969 C400.03,787.4469 414.4706,901.56 426.4906,959.97" fill="none" id="GenerateDestination-to-VertexAI" style="stroke:#0D6EFD;stroke-width:2;"/><polygon fill="#0D6EFD" points="427.7,965.8469,429.8038,956.2253,426.6922,960.9495,421.968,957.8378,427.7,965.8469" style="stroke:#0D6EFD;stroke-width:2;"/><text fill="#0D6EFD" font-family="Yu Gothic UI" font-size="13" lengthAdjust="spacing" textLength="112.4741" x="457" y="724.3638">&#26053;&#20808;&#29983;&#25104; (Gemini)</text></g><!--link GenerateDestination to Firestore--><g class="link" data-entity-1="GenerateDestination" data-entity-2="Firestore" data-source-line="66" data-uid="lnk29" id="link_GenerateDestination_Firestore"><path d="M732.31,503.5769 C730.86,503.8269 729.43,504.0669 728,504.2969 C548.16,533.5369 495.07,493.8269 320,544.2969 C294.22,551.7269 290.79,561.0369 266,571.2969 C213.59,592.9769 157.0785,611.0681 116.1085,623.3181" fill="none" id="GenerateDestination-to-Firestore" style="stroke:#0D6EFD;stroke-width:2;"/><polygon fill="#0D6EFD" points="110.36,625.0369,120.1287,626.291,115.1504,623.6045,117.8369,618.6263,110.36,625.0369" style="stroke:#0D6EFD;stroke-width:2;"/><text fill="#0D6EFD" font-family="Yu Gothic UI" font-size="13" lengthAdjust="spacing" textLength="52" x="326" y="562.3638">&#26053;&#20808;&#20445;&#23384;</text></g><!--link GenerateDestination to GenerateDiary--><g class="link" data-entity-1="GenerateDestination" data-entity-2="GenerateDiary" data-source-line="67" data-uid="lnk30" id="link_GenerateDestination_GenerateDiary"><path d="M837.56,504.4769 C834.96,516.5569 832.28,531.0669 831,544.2969 C828.83,566.7569 828.8084,586.3903 829.4384,605.1303" fill="none" id="GenerateDestination-to-GenerateDiary" style="stroke:#0D6EFD;stroke-width:2;"/><polygon fill="#0D6EFD" points="829.64,611.1269,833.3354,601.9976,829.472,606.1297,825.3399,602.2664,829.64,611.1269" style="stroke:#0D6EFD;stroke-width:2;"/><text fill="#0D6EFD" font-family="Yu Gothic UI" font-size="13" lengthAdjust="spacing" textLength="118.5234" x="837" y="562.3638">&#26085;&#35352;&#12486;&#12461;&#12473;&#12488;&#29983;&#25104;&#12408;</text></g><!--link GenerateDiary to VertexAI--><g class="link" data-entity-1="GenerateDiary" data-entity-2="VertexAI" data-source-line="68" data-uid="lnk31" id="link_GenerateDiary_VertexAI"><path d="M752.81,666.3069 C673.78,694.4169 558.77,739.3569 526,773.2969 C473.14,828.0469 451.2526,911.7172 442.2426,960.3672" fill="none" id="GenerateDiary-to-VertexAI" style="stroke:#0D6EFD;stroke-width:2;"/><polygon fill="#0D6EFD" points="441.15,966.2669,446.7221,958.1458,442.0605,961.3505,438.8558,956.6889,441.15,966.2669" style="stroke:#0D6EFD;stroke-width:2;"/><text fill="#0D6EFD" font-family="Yu Gothic UI" font-size="13" lengthAdjust="spacing" textLength="165.6929" x="532" y="820.3638">&#26085;&#35352;&#12486;&#12461;&#12473;&#12488;&#29983;&#25104; (Gemini)</text></g><!--link GenerateDiary to Firestore--><g class="link" data-entity-1="GenerateDiary" data-entity-2="Firestore" data-source-line="69" data-uid="lnk32" id="link_GenerateDiary_Firestore"><path d="M739.34,638.7969 C574.04,638.7969 237.86,638.7969 116.16,638.7969" fill="none" id="GenerateDiary-to-Firestore" style="stroke:#0D6EFD;stroke-width:2;"/><polygon fill="#0D6EFD" points="110.16,638.7969,119.16,642.7969,115.16,638.7969,119.16,634.7969,110.16,638.7969" style="stroke:#0D6EFD;stroke-width:2;"/><text fill="#0D6EFD" font-family="Yu Gothic UI" font-size="13" lengthAdjust="spacing" textLength="52" x="398.75" y="626.8638">&#26085;&#35352;&#20445;&#23384;</text></g><!--link GenerateDiary to GenerateDiaryImage--><g class="link" data-entity-1="GenerateDiary" data-entity-2="GenerateDiaryImage" data-source-line="70" data-uid="lnk33" id="link_GenerateDiary_GenerateDiaryImage"><path d="M833.43,666.3769 C836.45,699.3669 841.0145,749.3117 844.0245,782.2817" fill="none" id="GenerateDiary-to-GenerateDiaryImage" style="stroke:#0D6EFD;stroke-width:2;"/><polygon fill="#0D6EFD" points="844.57,788.2569,847.7352,778.9305,844.1154,783.2776,839.7683,779.6578,844.57,788.2569" style="stroke:#0D6EFD;stroke-width:2;"/><text fill="#0D6EFD" font-family="Yu Gothic UI" font-size="13" lengthAdjust="spacing" textLength="91.3047" x="846" y="724.3638">&#26085;&#35352;&#30011;&#20687;&#29983;&#25104;&#12408;</text></g><!--link GenerateDiaryImage to VertexAI--><g class="link" data-entity-1="GenerateDiaryImage" data-entity-2="VertexAI" data-source-line="71" data-uid="lnk34" id="link_GenerateDiaryImage_VertexAI"><path d="M813.09,843.4369 C790.51,859.8069 759.49,879.7869 729,891.2969 C707.94,899.2469 700.65,893.1569 679,899.2969 C618.78,916.3669 558.8655,941.5777 511.1155,963.6677" fill="none" id="GenerateDiaryImage-to-VertexAI" style="stroke:#0D6EFD;stroke-width:2;"/><polygon fill="#0D6EFD" points="505.67,966.1869,515.5177,966.0384,510.2079,964.0875,512.1588,958.7777,505.67,966.1869" style="stroke:#0D6EFD;stroke-width:2;"/><text fill="#0D6EFD" font-family="Yu Gothic UI" font-size="13" lengthAdjust="spacing" textLength="141.229" x="685" y="917.3638">&#26085;&#35352;&#30011;&#20687;&#29983;&#25104; (Imagen)</text></g><!--link GenerateDiaryImage to CloudStorage--><g class="link" data-entity-1="GenerateDiaryImage" data-entity-2="CloudStorage" data-source-line="72" data-uid="lnk35" id="link_GenerateDiaryImage_CloudStorage"><path d="M847,843.4769 C847,875.8869 847,924.5969 847,960.0769" fill="none" id="GenerateDiaryImage-to-CloudStorage" style="stroke:#0D6EFD;stroke-width:2;"/><polygon fill="#0D6EFD" points="847,966.0769,851,957.0769,847,961.0769,843,957.0769,847,966.0769" style="stroke:#0D6EFD;stroke-width:2;"/><text fill="#0D6EFD" font-family="Yu Gothic UI" font-size="13" lengthAdjust="spacing" textLength="52" x="853" y="917.3638">&#30011;&#20687;&#20445;&#23384;</text></g><!--link CloudScheduler to DiaryEmail--><g class="link" data-entity-1="CloudScheduler" data-entity-2="DiaryEmail" data-source-line="74" data-uid="lnk36" id="link_CloudScheduler_DiaryEmail"><path d="M533.01,149.2969 C493.88,165.0569 434.19,190.0769 384,215.2969 C352.21,231.2669 322.6332,248.267 296.2332,264.127" fill="none" id="CloudScheduler-to-DiaryEmail" style="stroke:#198754;stroke-width:2;"/><polygon fill="#198754" points="291.09,267.2169,300.8647,266.0109,295.376,264.642,296.745,259.1533,291.09,267.2169" style="stroke:#198754;stroke-width:2;"/></g><!--link Firestore to DiaryEmail--><g class="link" data-entity-1="Firestore" data-entity-2="DiaryEmail" data-source-line="75" data-uid="lnk37" id="link_Firestore_DiaryEmail"><path d="M67.3,611.4569 C70.72,564.7969 83,466.0569 127,397.2969 C146.66,366.5769 173.6181,343.8039 199.7281,325.7139" fill="none" id="Firestore-to-DiaryEmail" style="stroke:#198754;stroke-width:2;"/><polygon fill="#198754" points="204.66,322.2969,194.9841,324.1345,200.5501,325.1444,199.5401,330.7104,204.66,322.2969" style="stroke:#198754;stroke-width:2;"/><text fill="#198754" font-family="Yu Gothic UI" font-size="13" lengthAdjust="spacing" textLength="91.6094" x="133" y="481.3638">&#26085;&#35352;&#12487;&#12540;&#12479;&#21462;&#24471;</text></g><!--link DiaryEmail to Gmail--><g class="link" data-entity-1="DiaryEmail" data-entity-2="Gmail" data-source-line="76" data-uid="lnk38" id="link_DiaryEmail_Gmail"><path d="M354.7,317.8769 C364.58,319.5369 374.46,321.0469 384,322.2969 C512.09,339.1269 844.08,314.2369 964,362.2969 C1081.48,409.3669 1109.69,441.1369 1183,544.2969 C1197.36,564.4969 1205.0297,585.516 1210.3797,605.246" fill="none" id="DiaryEmail-to-Gmail" style="stroke:#198754;stroke-width:2;"/><polygon fill="#198754" points="1211.95,611.0369,1213.4552,601.3037,1210.6415,606.2111,1205.734,603.3974,1211.95,611.0369" style="stroke:#198754;stroke-width:2;"/><text fill="#198754" font-family="Yu Gothic UI" font-size="13" lengthAdjust="spacing" textLength="91.6094" x="1159" y="481.3638">&#26085;&#35352;&#12513;&#12540;&#12523;&#36865;&#20449;</text></g><!--link CloudScheduler to Cleanup--><g class="link" data-entity-1="CloudScheduler" data-entity-2="Cleanup" data-source-line="78" data-uid="lnk39" id="link_CloudScheduler_Cleanup"><path d="M643.28,146.1769 C702.05,159.2069 788.15,181.9469 858,215.2969 C887.1,229.1869 912.1878,246.5811 933.8878,263.4011" fill="none" id="CloudScheduler-to-Cleanup" style="stroke:#F39C12;stroke-width:2;"/><polygon fill="#F39C12" points="938.63,267.0769,933.9672,258.4017,934.6781,264.0137,929.0661,264.7247,938.63,267.0769" style="stroke:#F39C12;stroke-width:2;"/></g><!--link Cleanup to Firestore--><g class="link" data-entity-1="Cleanup" data-entity-2="Firestore" data-source-line="79" data-uid="lnk40" id="link_Cleanup_Firestore"><path d="M888.22,316.3469 C878.08,318.5269 867.82,320.5769 858,322.2969 C626.7,362.8069 538.73,280.5169 335,397.2969 C280.08,428.7769 294.62,470.6469 241,504.2969 C184.74,539.6069 145.11,498.4969 97,544.2969 C91.95,549.1069 82.4177,579.9304 74.9577,605.8804" fill="none" id="Cleanup-to-Firestore" style="stroke:#F39C12;stroke-width:2;"/><polygon fill="#F39C12" points="73.3,611.6469,79.6309,604.1023,74.6814,606.8415,71.9423,601.8921,73.3,611.6469" style="stroke:#F39C12;stroke-width:2;"/><text fill="#F39C12" font-family="Yu Gothic UI" font-size="13" lengthAdjust="spacing" textLength="118.2188" x="341" y="481.3638">&#26399;&#38480;&#20999;&#12428;&#12506;&#12483;&#12488;&#21066;&#38500;</text></g><!--link Cleanup to Gmail--><g class="link" data-entity-1="Cleanup" data-entity-2="Gmail" data-source-line="80" data-uid="lnk41" id="link_Cleanup_Gmail"><path d="M1053.84,305.9869 C1151.99,320.0969 1306.04,349.4169 1336,397.2969 C1361.23,437.6069 1352.84,459.8269 1336,504.2969 C1319.41,548.1269 1285.6958,582.9442 1257.2058,607.2342" fill="none" id="Cleanup-to-Gmail" style="stroke:#F39C12;stroke-width:2;"/><polygon fill="#F39C12" points="1252.64,611.1269,1262.0839,608.3317,1256.4448,607.8829,1256.8936,602.2439,1252.64,611.1269" style="stroke:#F39C12;stroke-width:2;"/><text fill="#F39C12" font-family="Yu Gothic UI" font-size="13" lengthAdjust="spacing" textLength="117.6094" x="1357" y="481.3638">&#21066;&#38500;&#36890;&#30693;&#12513;&#12540;&#12523;&#36865;&#20449;</text></g><g class="legend" data-source-line="84"><rect fill="none" height="85.1875" rx="2.5" ry="2.5" style="stroke:#000000;stroke-width:1;" width="191.1445" x="1270.4648" y="1070.2969"/><text fill="#DC3545" font-family="Yu Gothic UI" font-size="14" font-weight="bold" lengthAdjust="spacing" textLength="66.7256" x="1280.4648" y="1093.292">&#12479;&#12473;&#12463;1&#65306;</text><text fill="#000000" font-family="Yu Gothic UI" font-size="14" lengthAdjust="spacing" textLength="70.9844" x="1351.6406" y="1093.292">&#12506;&#12483;&#12488;&#30331;&#37682;</text><text fill="#0D6EFD" font-family="Yu Gothic UI" font-size="14" font-weight="bold" lengthAdjust="spacing" textLength="66.7256" x="1280.4648" y="1109.5889">&#12479;&#12473;&#12463;2&#65306;</text><text fill="#000000" font-family="Yu Gothic UI" font-size="14" lengthAdjust="spacing" textLength="56" x="1351.6406" y="1109.5889">&#26085;&#35352;&#29983;&#25104;</text><text fill="#198754" font-family="Yu Gothic UI" font-size="14" font-weight="bold" lengthAdjust="spacing" textLength="66.7256" x="1280.4648" y="1125.8857">&#12479;&#12473;&#12463;3&#65306;</text><text fill="#000000" font-family="Yu Gothic UI" font-size="14" lengthAdjust="spacing" textLength="98.6563" x="1351.6406" y="1125.8857">&#26085;&#35352;&#12513;&#12540;&#12523;&#36865;&#20449;</text><text fill="#F39C12" font-family="Yu Gothic UI" font-size="14" font-weight="bold" lengthAdjust="spacing" textLength="66.7256" x="1280.4648" y="1142.1826">&#12479;&#12473;&#12463;4&#65306;</text><text fill="#000000" font-family="Yu Gothic UI" font-size="14" lengthAdjust="spacing" textLength="99.9688" x="1351.6406" y="1142.1826">&#12463;&#12522;&#12540;&#12531;&#12450;&#12483;&#12503;</text></g><!--SRC=[bLTjJzjM5FxkNt4NFXIa8G8Xl2b40iT6V5XLbNNInFXm4r-8HM9djbFMJKXDB5usc41QsnIwYhAkBLi5rOQqTMrNVip5IVEfVs7tnN4Sss4G8HIV-vpdtFESS-vrharEJW9dxUZytvy-71qx9_k060HBjGe8pDThQxYoXwjRsDx0rTUuUeRjbzZUnxQDxKtG3t3b05TESUKDhZp5bSC5WAj_u-e_s5x7zfFwYwtwvgxpw5JunCgZ8WAtrQm1DKkmz1AmT93LBKil0aKrKCvITKqmbrMj10rO1Dy9W7moQ16M2vQiQzPrIFnZNvR1Z6xbrHouDHiBGkRKRn4OJ31p2IgAgYs197kwhYl8H2Km4cUFDw6sJ1_7-AEPXug-Gj6Bi60YPZFqigQ8kg4Xm-M0EKitfdL3GOQe5tG3z0o92IaPzot2tFAIwyW0yfWyBaynW08jc8Kc2cDaEI5c62PNqCjA220bv26P0xuketAOGHgJaz9O6q2b2EzmqQ02Sba1wCXZU3mPJuwsLa8Rd9AdPP6jhl9S3KDVyPZ27Al2gY1Sers5gwVO9d-FiVqEsp-oxvkamnhlVsDDnbG3CMm_fu3gN-H_340Jt3AH8J0rG6oc2DK2ix9lL31fMf84eKGs2fT8Jype-XBfLP7XUsNIJ5JelXXH9aEaazsjjYe0OdCePo0BV0OruczyfVLovgbI2To0fhb2jEbZ4JdGnNMKYWaDOZpcN2wFb7816So9sJnJ83JTdKcIHWpgFRNBxt4ICubADdSJcRIlPulaqUppXU28Zlgx55yWmqBVWAbPcXiggfewmDmrxiwNfsP9HWdYB0k-1d73osMDJQH9L9H7IHUBNi41c9UONc8UvPR1vuQwHDHPeCJCpirKhBWSR_k81e8M0ZU8y791Ns5uRgEc43n3cEw0Z0gDEnqXcCKri08dM_jdKqlE4QZHReZD83AwD2BrK15DH8fBijSENgGsaDH2rI1Dkxt5rgf_iHMs2mtRCoVW7pyDMxmC0IjOn3xe8byBigmAqVBnQeL4vEOUAeaa1prfJSG2WbgvrCg2DnupiNADIoF1SRVlO_kO3B5lnEaeW_xvdeoOI0udFytg1MMXF-tEyWH8vUZnCU4kfoq3taQ5_XAod9D7k49kcaDsTBnitgsSdnsc1XWyBNJEM0H_knC5NrE6SUqE3EsbiVUskVsdi_6yiRlUVB3blDXgX_UymepUS8K8iLrZyjp7rQSygyQz0t8_0dT6-ox5xvqPKG7SUxbkhpbF_ZW_U-mSFxmKQPTok1ASR9-_MUzMYeXQn3CZafpnoFqZAtJCRnWRDMxjRN5mchoiUAdYoaczzkp3qKEkPQ1GKNJXe14bSoEHrnzdRRDRcIx77bMm3lf0dIx7sdcWH31JJUXRMFMOlOwvIU3Awt0WHd4rMQBPBv2eIumBnQ51kedJXI_YcEn2tBZtrh5t_aSLpd1rQVpaeDUzUwyMekEE3uNX0GBYH8pYuFZOQ7AuSnJPWIYqbRy8velCCLxjDzWhsvcpyy1vN_EsuFCCqyvSp7ZfyqLEZ8k3GpwbsAKaj2wdC2AgopWaNV_veBctwsoINpVRtg7YVFz3S-zNtstJZJYOaKlA_Pjtzni7pxhcnNq92RiY9u07T7Pg12W81KIwHW7ahCnRvAPDBPBtUi2y9ri7T2gRfZ_9o0XMNmr-VBUV6iYcKmCKc0PUDlmK3pAuZUHd60em-0_MeBjRExzx8j8za7-GnrNCppCSJAJw2jk_Cv9JNFs59LKJY3HSeFy0]--></g></svg>